<svg width="2560" height="69" viewBox="0 0 2560 69" fill="none" xmlns="http://www.w3.org/2000/svg">
<path fill-rule="evenodd" clip-rule="evenodd" d="M863.742 22.1458L863.733 22.1462L858.701 22.3812C702.92 29.6581 397.208 43.9387 0 1.5V65V68V69H183.7H184H2289.1V68H2560C2535.74 64.7229 2510.11 61.0623 2482.97 57.1853L2482.88 57.1724C2312.57 32.8401 2082.7 0 1757.2 0C1689.23 0 1519.32 4.79757 1350.6 9.56134L1350.59 9.56177L1350.55 9.56299L1350.48 9.56494L1350.4 9.56714C1184.08 14.2634 1018.97 18.9255 953.868 18.9255C932.753 18.9255 902.574 20.3337 863.742 22.1458Z" fill="#292928"/>
</svg>
