<svg width="49" height="47" viewBox="0 0 49 47" fill="none" xmlns="http://www.w3.org/2000/svg">
<path d="M9.80417 20.1242C13.7042 27.435 19.9875 33.4025 27.6521 37.1483L33.6104 31.465C34.3417 30.7675 35.425 30.535 36.3729 30.845C39.4062 31.8008 42.6833 32.3175 46.0417 32.3175C47.5312 32.3175 48.75 33.48 48.75 34.9008V43.9167C48.75 45.3375 47.5312 46.5 46.0417 46.5C20.6104 46.5 0 26.8408 0 2.58333C0 1.1625 1.21875 0 2.70833 0H12.1875C13.6771 0 14.8958 1.1625 14.8958 2.58333C14.8958 5.8125 15.4375 8.9125 16.4396 11.8058C16.7375 12.71 16.5208 13.7175 15.7625 14.4408L9.80417 20.1242Z" fill="#006E40"/>
</svg>
